<svg xmlns="http://www.w3.org/2000/svg" version="1.1" x="0px" y="0px" viewBox="0 0 66 82.5" style="enable-background:new 0 0 66 66;" xml:space="preserve"><path d="M49.33,24.14c0,0.48,0.39,0.88,0.88,0.88s0.88-0.39,0.88-0.88c0-6.28-5.11-11.39-11.39-11.39c-0.48,0-0.88,0.39-0.88,0.88  s0.39,0.88,0.88,0.88C45,14.5,49.33,18.82,49.33,24.14z"/><path d="M56.54,46.63c-1.48,0.89-3.18,1.41-4.87,1.5l-8.29,0v-5.25h0.13c0.48,0,0.88-0.39,0.88-0.88s-0.39-0.88-0.88-0.88h-18  c-0.48,0-0.88,0.39-0.88,0.88s0.39,0.88,0.88,0.88h0.13v5.25l-8.24,0c-2.46-0.12-4.81-1.11-6.62-2.78  c-0.36-0.33-0.91-0.31-1.24,0.05c-0.33,0.36-0.3,0.91,0.05,1.24c2.11,1.95,4.85,3.1,7.76,3.24l8.29,0v4.25h-2.25V52  c0-0.48-0.39-0.88-0.88-0.88h-6c-0.48,0-0.88,0.39-0.88,0.88v6c0,0.48,0.39,0.88,0.88,0.88h6c0.48,0,0.88-0.39,0.88-0.88v-2.13h3.13  c0.48,0,0.88-0.39,0.88-0.88v-5.13l8.25,0v10.25h-2.25V58c0-0.48-0.39-0.88-0.88-0.88h-6c-0.48,0-0.88,0.39-0.88,0.88v6  c0,0.48,0.39,0.88,0.88,0.88h6c0.48,0,0.88-0.39,0.88-0.88v-2.13h3.13c0.48,0,0.88-0.39,0.88-0.88V49.87l4.25,0V61  c0,0.48,0.39,0.88,0.88,0.88h3.13V64c0,0.48,0.39,0.88,0.88,0.88h6c0.48,0,0.88-0.39,0.88-0.88v-6c0-0.48-0.39-0.88-0.88-0.88h-6  c-0.48,0-0.88,0.39-0.88,0.88v2.13h-2.25V49.87l8.33,0c2.02-0.1,4.01-0.71,5.73-1.75c0.41-0.25,0.55-0.79,0.3-1.2  C57.49,46.51,56.95,46.38,56.54,46.63z M21.63,57.13h-4.25v-4.25h4.25V57.13z M31.63,63.13h-4.25v-4.25h4.25V63.13z M47.38,58.88  h4.25v4.25h-4.25V58.88z M27.38,48.13v-5.25h8.25v5.25L27.38,48.13z M37.38,48.13v-5.25h4.25v5.25L37.38,48.13z"/><path d="M54.96,25.97c0.08-0.64,0.12-1.24,0.12-1.83c0-8.49-6.91-15.39-15.39-15.39c-5.61,0-10.67,2.98-13.4,7.84  c-1.03-0.39-2.1-0.58-3.2-0.58c-5.06,0-9.17,4.11-9.17,9.17c0,0.27,0.01,0.54,0.04,0.82c-4.95,1.68-8.34,6.35-8.34,11.62  c0,1.91,0.43,3.74,1.27,5.43c0.21,0.43,0.74,0.61,1.17,0.4c0.43-0.21,0.61-0.74,0.4-1.17c-0.72-1.45-1.08-3.02-1.08-4.66  c0-4.74,3.2-8.92,7.78-10.16c0.44-0.12,0.71-0.55,0.63-1c-0.08-0.46-0.12-0.88-0.12-1.29c0-4.09,3.33-7.42,7.42-7.42  c1.11,0,2.19,0.25,3.21,0.74c0.43,0.21,0.95,0.03,1.16-0.4c2.32-4.69,7-7.6,12.22-7.6c7.52,0,13.64,6.12,13.64,13.64  c0,0.72-0.07,1.48-0.21,2.31c-0.08,0.45,0.2,0.88,0.64,0.99c4.63,1.21,7.87,5.4,7.87,10.18c0,2.71-1.03,5.28-2.89,7.24  c-0.33,0.35-0.32,0.9,0.03,1.24c0.17,0.16,0.39,0.24,0.6,0.24c0.23,0,0.46-0.09,0.63-0.27c2.18-2.29,3.37-5.29,3.37-8.45  C63.38,32.31,59.95,27.63,54.96,25.97z"/><path d="M27.62,31.38c-0.34-0.34-0.9-0.34-1.24,0l-3,3c-0.01,0.01-0.02,0.03-0.03,0.05c-0.06,0.07-0.12,0.15-0.16,0.23  c-0.04,0.1-0.06,0.2-0.06,0.3c0,0.01-0.01,0.02-0.01,0.03s0.01,0.02,0.01,0.03c0,0.1,0.02,0.21,0.06,0.3  c0.04,0.09,0.09,0.16,0.16,0.23c0.01,0.02,0.02,0.04,0.03,0.05l3,3c0.17,0.17,0.4,0.26,0.62,0.26s0.45-0.08,0.62-0.26  c0.34-0.34,0.34-0.9,0-1.24l-1.51-1.51H38c0.48,0,0.88-0.39,0.88-0.88s-0.39-0.88-0.88-0.88H26.11l1.51-1.51  C27.96,32.28,27.96,31.72,27.62,31.38z"/><path d="M30.13,30c0,0.48,0.39,0.88,0.88,0.88h11.89l-1.51,1.51c-0.34,0.34-0.34,0.9,0,1.24c0.17,0.17,0.4,0.26,0.62,0.26  s0.45-0.08,0.62-0.26l3-3c0.01-0.01,0.02-0.03,0.03-0.05c0.06-0.07,0.12-0.15,0.16-0.23c0.04-0.1,0.06-0.2,0.06-0.3  c0-0.01,0.01-0.02,0.01-0.03s-0.01-0.02-0.01-0.03c0-0.1-0.02-0.21-0.06-0.3c-0.04-0.09-0.09-0.16-0.16-0.23  c-0.01-0.02-0.02-0.04-0.03-0.05l-3-3c-0.34-0.34-0.9-0.34-1.24,0c-0.34,0.34-0.34,0.9,0,1.24l1.51,1.51H31  C30.52,29.13,30.13,29.52,30.13,30z"/><path d="M8.98,26.74c0.22,0,0.45-0.08,0.62-0.26c0.34-0.34,0.34-0.9,0-1.24l-2.82-2.82l1.6-2.24c0.19-0.27,0.22-0.63,0.06-0.92  c-0.27-0.52-0.5-1.05-0.66-1.59c-0.1-0.32-0.37-0.55-0.69-0.61l-2.71-0.45v-3.25l2.71-0.45c0.33-0.05,0.6-0.29,0.69-0.61  c0.17-0.54,0.39-1.07,0.66-1.59c0.16-0.29,0.13-0.65-0.06-0.92l-1.6-2.24l2.29-2.29l2.24,1.6c0.27,0.19,0.63,0.22,0.92,0.06  c0.51-0.27,1.05-0.5,1.59-0.66c0.32-0.1,0.55-0.37,0.61-0.69l0.45-2.71h3.24l0.45,2.71c0.05,0.33,0.29,0.59,0.61,0.69  c0.54,0.17,1.08,0.39,1.59,0.66c0.29,0.16,0.65,0.13,0.92-0.06l2.24-1.6l2.29,2.29l-1.6,2.24c-0.19,0.27-0.22,0.63-0.06,0.92  c0.27,0.52,0.5,1.05,0.66,1.59c0.14,0.46,0.63,0.72,1.09,0.58c0.46-0.14,0.72-0.63,0.58-1.09c-0.15-0.47-0.33-0.95-0.54-1.41  l1.72-2.41c0.25-0.35,0.21-0.83-0.09-1.13l-3.34-3.34c-0.3-0.3-0.78-0.34-1.13-0.09L21.1,5.15c-0.29-0.14-0.59-0.26-0.89-0.37  l-0.49-2.92c-0.07-0.42-0.44-0.73-0.86-0.73h-4.73c-0.43,0-0.79,0.31-0.86,0.73l-0.49,2.92c-0.3,0.11-0.6,0.23-0.89,0.37L9.49,3.42  C9.14,3.17,8.66,3.21,8.36,3.52L5.02,6.86c-0.3,0.3-0.34,0.78-0.09,1.13l1.72,2.41c-0.14,0.29-0.26,0.59-0.37,0.89l-2.92,0.49  c-0.42,0.07-0.73,0.44-0.73,0.86v4.73c0,0.43,0.31,0.79,0.73,0.86l2.92,0.49c0.11,0.3,0.23,0.59,0.37,0.89l-1.72,2.41  c-0.25,0.35-0.21,0.83,0.09,1.13l3.34,3.34C8.53,26.65,8.75,26.74,8.98,26.74z"/><path d="M16.5,10.67c2.06,0,3.84,1.47,4.24,3.49c0.09,0.47,0.55,0.79,1.03,0.69c0.47-0.09,0.78-0.55,0.69-1.03  c-0.56-2.84-3.06-4.9-5.96-4.9c-3.35,0-6.08,2.73-6.08,6.08c0,1.96,0.96,3.81,2.57,4.95c0.15,0.11,0.33,0.16,0.5,0.16  c0.27,0,0.54-0.13,0.71-0.37c0.28-0.39,0.19-0.94-0.21-1.22c-1.15-0.81-1.83-2.13-1.83-3.52C12.17,12.62,14.12,10.67,16.5,10.67z"/></svg>