<svg xmlns="http://www.w3.org/2000/svg" viewBox="0 0 64 80" version="1.1" xml:space="preserve" style="" x="0px" y="0px" fill-rule="evenodd" clip-rule="evenodd" stroke-linejoin="round" stroke-miterlimit="2"><g><path d="M21.829,10c4.758,0 8.985,0.841 11.601,2.179c0.754,0.386 1.363,0.805 1.775,1.269c0.27,0.304 0.452,0.614 0.452,0.952c0,0.338 -0.182,0.648 -0.452,0.952c-0.412,0.464 -1.021,0.883 -1.775,1.269c-2.616,1.338 -6.843,2.179 -11.601,2.179c-4.759,0 -8.986,-0.841 -11.601,-2.179c-0.755,-0.386 -1.364,-0.805 -1.776,-1.269c-0.27,-0.304 -0.452,-0.614 -0.452,-0.952c0,-0.338 0.182,-0.648 0.452,-0.952c0.412,-0.464 1.021,-0.883 1.776,-1.269c2.615,-1.338 6.842,-2.179 11.601,-2.179Z"/><path d="M43.489,21.556c-1.855,-0.322 -3.752,-0.322 -5.606,0l-0.009,3.972c-1.336,0.31 -2.613,0.839 -3.777,1.565l-2.814,-2.803c-1.54,1.083 -2.881,2.424 -3.964,3.964l2.802,2.815c-0.726,1.164 -1.254,2.44 -1.564,3.777l-3.972,0.008c-0.323,1.855 -0.323,3.751 0,5.606l3.972,0.008c0.31,1.337 0.838,2.613 1.564,3.778l-2.802,2.814c1.083,1.54 2.424,2.881 3.964,3.964l2.814,-2.803c1.164,0.727 2.441,1.255 3.777,1.565l0.009,3.972c1.854,0.323 3.751,0.323 5.606,-0l0.008,-3.972c1.337,-0.31 2.613,-0.838 3.777,-1.565l2.814,2.803c1.54,-1.083 2.882,-2.424 3.965,-3.964l-2.803,-2.814c0.726,-1.165 1.255,-2.441 1.565,-3.778l3.971,-0.008c0.323,-1.855 0.323,-3.751 0,-5.606l-3.971,-0.008c-0.31,-1.337 -0.839,-2.613 -1.565,-3.777l2.803,-2.815c-1.083,-1.54 -2.425,-2.881 -3.965,-3.964l-2.814,2.803c-1.164,-0.726 -2.44,-1.255 -3.777,-1.565l-0.008,-3.972Zm-2.803,11.074c2.774,0 5.026,2.253 5.026,5.027c0,2.774 -2.252,5.027 -5.026,5.027c-2.775,-0 -5.027,-2.253 -5.027,-5.027c-0,-2.774 2.252,-5.027 5.027,-5.027Z"/><path d="M22.263,41.426c-0.144,0.002 -0.289,0.003 -0.434,0.003c-4.759,-0 -8.986,-0.842 -11.601,-2.18c-0.755,-0.386 -1.364,-0.805 -1.776,-1.268c-0.27,-0.305 -0.452,-0.614 -0.452,-0.952l0,-3.713c2.744,1.807 7.904,3.084 13.829,3.084l0.042,-0c-0.101,1.499 -0.021,3.007 0.237,4.492c0.033,0.186 0.085,0.365 0.155,0.534Z"/><path d="M22.265,33.883c-0.145,0.002 -0.29,0.003 -0.436,0.003c-4.759,-0 -8.986,-0.842 -11.601,-2.179c-0.755,-0.386 -1.364,-0.806 -1.776,-1.269c-0.27,-0.304 -0.452,-0.614 -0.452,-0.952l0,-3.713c2.729,1.796 7.845,3.07 13.729,3.084l0.321,-0c0.957,-0.005 1.894,-0.043 2.803,-0.11c0.094,0.472 0.324,0.92 0.684,1.282l1.496,1.501c-0.119,0.265 -0.231,0.534 -0.334,0.806c0,-0.001 -2.119,0.004 -2.119,0.004c-1.029,0.002 -1.931,0.627 -2.315,1.543Z"/><path d="M35.657,20.386c-0.184,0.35 -0.288,0.747 -0.289,1.165l-0.004,2.12c-0.272,0.103 -0.54,0.214 -0.806,0.333c0.001,0 -1.501,-1.495 -1.501,-1.495c-0.864,-0.861 -2.222,-0.977 -3.221,-0.275c-1.551,1.091 -2.927,2.409 -4.084,3.909c-1.248,0.13 -2.564,0.2 -3.923,0.2c-4.759,-0 -8.986,-0.841 -11.601,-2.179c-0.755,-0.386 -1.364,-0.806 -1.776,-1.269c-0.27,-0.304 -0.452,-0.614 -0.452,-0.952l0,-3.713c2.744,1.807 7.904,3.084 13.829,3.084c5.925,0 11.084,-1.277 13.828,-3.084l0,2.156Z"/></g></svg>