<svg xmlns="http://www.w3.org/2000/svg" data-name="Layer 1" viewBox="0 0 95 118.75" x="0px" y="0px"><path d="M41.076,24.693a1.146,1.146,0,0,1,.742-.273H75.275V21.231a5.493,5.493,0,0,0-5.487-5.487H6.488A5.493,5.493,0,0,0,1,21.231v6.107H37.975Zm25.287-8.025a3.414,3.414,0,1,1-3.413,3.414A3.418,3.418,0,0,1,66.363,16.668Zm-8.373,0a3.414,3.414,0,1,1-3.413,3.414A3.418,3.418,0,0,1,57.99,16.668Zm-8.373,0A3.414,3.414,0,1,1,46.2,20.082,3.417,3.417,0,0,1,49.617,16.668ZM15.368,24.962H9.017a1.144,1.144,0,0,1,0-2.287h6.351a1.144,1.144,0,0,1,0,2.287Zm0-4.556H9.017a1.144,1.144,0,0,1,0-2.287h6.351a1.144,1.144,0,0,1,0,2.287Zm33.122-.324a1.127,1.127,0,1,1,1.127,1.126A1.128,1.128,0,0,1,48.49,20.082Zm8.373,0a1.127,1.127,0,1,1,1.127,1.126A1.128,1.128,0,0,1,56.863,20.082Zm8.373,0a1.127,1.127,0,1,1,1.127,1.126A1.128,1.128,0,0,1,65.236,20.082Zm-7.2,46.136a1.144,1.144,0,0,1-.493-.2H49.909a1.144,1.144,0,0,1,0-2.287h7.15V60.636H34.145a1.144,1.144,0,0,1,0-2.287h23.4a1.134,1.134,0,0,1,.492-.2l3.082-.444a15.975,15.975,0,0,1,1.3-3.3l-1.959-2.618a1.142,1.142,0,0,1,.107-1.493l4.105-4.1a1.143,1.143,0,0,1,1.493-.107l2.494,1.865a16.071,16.071,0,0,1,3.255-1.415l.466-3.235a1.143,1.143,0,0,1,1.132-.98h1.758V26.706H42.239l-3.1,2.645a1.146,1.146,0,0,1-.742.273H1V66.049a5.493,5.493,0,0,0,5.488,5.487H61.5l1.2-1.6a15.96,15.96,0,0,1-1.415-3.255Zm8.634-31.793h3.132a1.144,1.144,0,1,1,0,2.287H66.674a1.144,1.144,0,1,1,0-2.287Zm-3.691,0h.98a1.144,1.144,0,0,1,0,2.287h-.98a1.144,1.144,0,1,1,0-2.287Zm0,5.762h6.823a1.144,1.144,0,1,1,0,2.287H62.983a1.144,1.144,0,1,1,0-2.287ZM25.724,37.253a2.831,2.831,0,0,1,2.828-2.828H57.218a2.83,2.83,0,0,1,2.828,2.828V54.017a2.83,2.83,0,0,1-2.828,2.827H28.552a2.831,2.831,0,0,1-2.828-2.827ZM7.21,36.541a2.118,2.118,0,0,1,2.116-2.116h9.353A2.118,2.118,0,0,1,20.8,36.541v7.985a2.119,2.119,0,0,1-2.116,2.117H9.326A2.119,2.119,0,0,1,7.21,44.526ZM20.8,64.347a1.673,1.673,0,0,1-1.671,1.671H8.88a1.673,1.673,0,0,1-1.67-1.671V60.02a1.673,1.673,0,0,1,1.67-1.671H19.124A1.673,1.673,0,0,1,20.8,60.02Zm-1.127-8.7H8.337a1.144,1.144,0,1,1,0-2.287H19.668a1.144,1.144,0,0,1,0,2.287Zm0-4.513H8.337a1.144,1.144,0,1,1,0-2.287H19.668a1.144,1.144,0,0,1,0,2.287Zm8.839,14.886h-1.64a1.144,1.144,0,0,1,0-2.287h1.64a1.144,1.144,0,1,1,0,2.287Zm-1.64-5.382a1.144,1.144,0,0,1,0-2.287H30.46a1.144,1.144,0,0,1,0,2.287Zm19.357,5.382H32.192a1.144,1.144,0,0,1,0-2.287H46.224a1.144,1.144,0,1,1,0,2.287ZM18.508,44.356H9.5V36.712h9.012ZM9.5,60.636h9.012v3.095H9.5Zm18.515-6.619V37.253a.548.548,0,0,1,.541-.541H57.218a.548.548,0,0,1,.541.541V54.017a.549.549,0,0,1-.541.541H28.552A.549.549,0,0,1,28.011,54.017Zm63,5.316a1.144,1.144,0,0,1-.944-.848,13.739,13.739,0,0,0-1.75-4.014,1.143,1.143,0,0,1,.046-1.3L90.1,50.85l-2.7-2.7-2.42,1.81a1.143,1.143,0,0,1-1.267.069,13.751,13.751,0,0,0-4.074-1.6,1.143,1.143,0,0,1-.888-.954L78.331,44.6H74.507l-.431,2.989a1.144,1.144,0,0,1-.847.945,13.739,13.739,0,0,0-4.014,1.75,1.143,1.143,0,0,1-1.3-.047l-2.319-1.734-2.7,2.7,1.811,2.42a1.142,1.142,0,0,1,.068,1.268,13.722,13.722,0,0,0-1.6,4.074,1.144,1.144,0,0,1-.954.888l-2.866.413V64.1l2.99.431a1.141,1.141,0,0,1,.944.847,13.765,13.765,0,0,0,1.75,4.014,1.141,1.141,0,0,1-.046,1.3l-1.735,2.319,2.7,2.7,2.42-1.81a1.143,1.143,0,0,1,1.267-.069,13.73,13.73,0,0,0,4.075,1.6,1.143,1.143,0,0,1,.888.954l.413,2.865h3.823l.431-2.989a1.144,1.144,0,0,1,.848-.945,13.739,13.739,0,0,0,4.014-1.75,1.143,1.143,0,0,1,1.3.047l2.319,1.734,2.7-2.7-1.811-2.421a1.144,1.144,0,0,1-.068-1.267,13.722,13.722,0,0,0,1.6-4.074A1.144,1.144,0,0,1,91.134,64L94,63.587V59.763ZM76.673,72.054A10.125,10.125,0,1,1,86.8,61.929,10.136,10.136,0,0,1,76.673,72.054Zm0-17.963a7.839,7.839,0,1,0,7.838,7.838A7.847,7.847,0,0,0,76.673,54.091Zm-3.16,8.46a1.143,1.143,0,1,1-1.537,1.693l-1.617-1.468a1.145,1.145,0,0,1,0-1.693l1.617-1.468a1.143,1.143,0,0,1,1.537,1.693l-.684.621Zm5.4-3.192L76.56,65.338a1.143,1.143,0,0,1-2.128-.837l2.354-5.98a1.144,1.144,0,1,1,2.128.838Zm4.448,2.57a1.143,1.143,0,0,1-.375.847L81.37,64.244a1.143,1.143,0,0,1-1.537-1.693l.684-.622-.684-.621a1.143,1.143,0,0,1,1.537-1.693l1.617,1.468A1.142,1.142,0,0,1,83.362,61.929Z"/></svg>