<?xml version="1.0" encoding="UTF-8"?>
<svg id="Layer_2" data-name="Layer 2" xmlns="http://www.w3.org/2000/svg" xmlns:xlink="http://www.w3.org/1999/xlink" viewBox="0 0 146.09 146.09">
  <defs>
    <style>
      .cls-1 {
        fill: url(#linear-gradient-2);
      }

      .cls-2 {
        fill: url(#radial-gradient-7);
      }

      .cls-3 {
        fill: #fff;
      }

      .cls-4 {
        fill: url(#radial-gradient-5);
      }

      .cls-5 {
        fill: url(#radial-gradient-4);
      }

      .cls-6 {
        fill: url(#radial-gradient-6);
      }

      .cls-7 {
        fill: url(#radial-gradient);
      }

      .cls-8 {
        fill: url(#radial-gradient-2);
      }

      .cls-9 {
        fill: url(#radial-gradient-3);
      }

      .cls-10 {
        fill: url(#linear-gradient-3);
      }

      .cls-11 {
        fill: url(#linear-gradient);
      }
    </style>
    <radialGradient id="radial-gradient" cx="37.96" cy="55.31" fx="37.96" fy="55.31" r="40.86" gradientUnits="userSpaceOnUse">
      <stop offset="0" stop-color="#21409a"/>
      <stop offset="1" stop-color="#7f3f98"/>
    </radialGradient>
    <radialGradient id="radial-gradient-2" cx="69.25" cy="76.59" fx="69.25" fy="76.59" r="0" xlink:href="#radial-gradient"/>
    <radialGradient id="radial-gradient-3" cx="73.05" cy="124.63" fx="73.05" fy="124.63" r="40.11" xlink:href="#radial-gradient"/>
    <radialGradient id="radial-gradient-4" cx="108.15" cy="55.3" fx="108.15" fy="55.3" r="40.84" xlink:href="#radial-gradient"/>
    <radialGradient id="radial-gradient-5" cx="69.25" cy="76.59" fx="69.25" fy="76.59" r="0" xlink:href="#radial-gradient"/>
    <radialGradient id="radial-gradient-6" cx="69.25" cy="76.59" fx="69.25" fy="76.59" r="0" xlink:href="#radial-gradient"/>
    <radialGradient id="radial-gradient-7" cx="69.25" cy="76.59" fx="69.25" fy="76.59" r="0" xlink:href="#radial-gradient"/>
    <linearGradient id="linear-gradient" x1="52.09" y1="73.04" x2="93.92" y2="73.04" gradientUnits="userSpaceOnUse">
      <stop offset="0" stop-color="#21409a"/>
      <stop offset="1" stop-color="#7f3f98"/>
    </linearGradient>
    <linearGradient id="linear-gradient-2" x1="45.45" y1="93.86" x2="100.74" y2="93.86" gradientUnits="userSpaceOnUse">
      <stop offset="0" stop-color="#7f3f98"/>
      <stop offset="1" stop-color="#21409a"/>
    </linearGradient>
    <linearGradient id="linear-gradient-3" x1="45.26" y1="52.23" x2="100.56" y2="52.23" gradientUnits="userSpaceOnUse">
      <stop offset="0" stop-color="#7f3f98"/>
      <stop offset="1" stop-color="#21409a"/>
    </linearGradient>
  </defs>
  <g id="Layer_2-2">
    <g>
      <circle class="cls-3" cx="73.04" cy="73.04" r="73.04"/>
      <g>
        <path class="cls-7" d="m69.24,6.73h0c0,1.88-1.42,3.44-3.28,3.65-31.47,3.52-55.92,30.21-55.92,62.61,0,9.37,2.04,18.26,5.72,26.25.78,1.7.17,3.71-1.45,4.65h0c-4.87-9.23-7.62-19.75-7.62-30.9C6.68,37.61,34.35,8.7,69.24,6.73Z"/>
        <polygon class="cls-8" points="69.26 76.6 69.24 76.6 69.24 76.59 69.26 76.6"/>
        <path class="cls-9" d="m127.81,110.4s.03.04.01.06c-11.95,17.45-32.03,28.9-54.78,28.9s-42.8-11.44-54.76-28.86c-.01-.02,0-.05.01-.06h0c1.62-.94,3.67-.51,4.81.97,11.51,14.96,29.6,24.59,49.93,24.59s38.44-9.65,49.96-24.62c1.14-1.48,3.19-1.91,4.81-.98h0Z"/>
        <path class="cls-5" d="m139.41,72.99c0,11.15-2.75,21.65-7.61,30.87h0c-1.62-.93-2.23-2.94-1.45-4.63,3.66-7.99,5.71-16.88,5.71-26.24,0-32.38-24.44-59.07-55.88-62.6-1.87-.21-3.28-1.77-3.28-3.65h0c34.86,1.99,62.52,30.89,62.52,66.25Z"/>
        <polygon class="cls-4" points="69.26 76.6 69.24 76.6 69.24 76.59 69.26 76.6"/>
        <polygon class="cls-6" points="69.26 76.6 69.24 76.6 69.24 76.59 69.26 76.6"/>
        <polygon class="cls-2" points="69.26 76.6 69.24 76.6 69.24 76.59 69.26 76.6"/>
      </g>
      <g>
        <path class="cls-11" d="m93.92,87.03c0,11.38-9.13,20.63-20.47,20.82,7.57-.19,13.64-6.39,13.64-14s-5.64-13.35-12.82-13.96c-.06,0-.12,0-.18,0h-1s0,0,0,0c-.06,0-.12,0-.18,0-.18,0-.36,0-.54,0-.09,0-.18,0-.27,0-.06,0-.13,0-.19,0-.03,0-.05,0-.08,0-.35-.02-.69-.04-1.03-.08-.17-.02-.35-.04-.52-.06-.17-.02-.34-.05-.51-.07-.17-.03-.34-.05-.51-.08-.16-.03-.33-.06-.49-.09,0,0-.01,0-.02,0-.1-.02-.2-.04-.29-.06-.11-.02-.22-.05-.32-.07-.14-.03-.29-.07-.43-.1-.32-.08-.63-.17-.94-.27-.15-.05-.3-.09-.45-.15-.11-.04-.21-.07-.32-.11-.08-.03-.15-.05-.23-.08-.13-.05-.27-.1-.4-.15-.13-.05-.26-.1-.39-.16-.11-.04-.22-.09-.33-.14-.09-.04-.19-.08-.28-.12-.13-.06-.25-.11-.38-.17-.14-.07-.28-.13-.42-.21-.01,0-.03-.01-.04-.02-.14-.07-.27-.14-.41-.21-.01,0-.02,0-.03-.01-.11-.06-.21-.11-.32-.17-.06-.03-.12-.07-.19-.11-.12-.07-.24-.14-.36-.21-.12-.07-.25-.15-.37-.23-.03-.01-.05-.03-.07-.05-.12-.08-.24-.15-.36-.23-.01,0-.03-.02-.04-.03-.1-.07-.21-.14-.31-.21-.19-.13-.37-.26-.55-.39-.08-.06-.15-.11-.23-.17-.08-.06-.15-.12-.23-.18-.04-.03-.07-.05-.11-.08-.07-.06-.15-.11-.22-.17-.11-.09-.21-.18-.32-.27,0,0,0,0,0,0-.09-.08-.18-.15-.27-.23-.07-.06-.13-.11-.19-.17-.07-.06-.14-.12-.2-.19-.04-.03-.07-.07-.11-.1-.09-.09-.19-.17-.28-.27-.02-.02-.04-.04-.07-.06-.1-.09-.19-.19-.28-.28-.03-.03-.05-.05-.08-.08-.08-.08-.16-.17-.24-.25-.04-.04-.08-.08-.12-.13-.07-.08-.14-.16-.21-.24-.04-.04-.08-.08-.11-.13-.08-.09-.15-.18-.23-.27-.03-.03-.06-.07-.08-.1-.07-.08-.13-.16-.2-.24-.05-.07-.11-.13-.16-.2-.06-.07-.12-.15-.18-.23-.03-.03-.05-.06-.07-.09-.08-.1-.15-.2-.23-.3-.04-.05-.07-.1-.1-.14-.06-.07-.11-.15-.16-.23-.05-.06-.09-.12-.13-.19-.06-.08-.11-.16-.16-.24-.04-.05-.07-.11-.11-.17-.06-.09-.12-.19-.18-.29-.01-.02-.03-.04-.04-.06-.07-.11-.14-.22-.2-.33-.05-.08-.1-.16-.14-.24-.06-.1-.12-.21-.17-.31-.06-.11-.12-.22-.18-.33-.03-.05-.05-.1-.08-.15-.05-.1-.11-.21-.16-.31,0-.01-.02-.03-.02-.04-.07-.14-.14-.28-.2-.42-.06-.12-.11-.24-.17-.37-.04-.09-.09-.19-.13-.28-.03-.07-.07-.15-.1-.23-.02-.05-.04-.09-.06-.14-.05-.11-.09-.21-.13-.32-.05-.14-.11-.28-.16-.42-.03-.07-.05-.14-.08-.21-.04-.1-.07-.21-.11-.31-.02-.06-.04-.11-.05-.17-.04-.11-.07-.22-.11-.33-.01-.03-.02-.06-.03-.09-.04-.13-.08-.26-.11-.38-.01-.04-.03-.09-.04-.13-.03-.12-.07-.24-.09-.36-.1-.37-.18-.75-.25-1.13-.03-.13-.05-.26-.07-.39-.15-.84-.25-1.69-.29-2.56,0-.14-.01-.29-.02-.43,0-.21-.01-.43-.01-.65,0-11.38,9.13-20.63,20.47-20.82-7.57.19-13.64,6.39-13.64,14s5.64,13.35,12.82,13.96c.06,0,.12,0,.18,0h1s0,0,0,0c.06,0,.12,0,.18,0,.18,0,.36,0,.54,0,.09,0,.18,0,.27,0,.06,0,.13,0,.19,0,.03,0,.05,0,.08,0,.35.02.69.04,1.03.08.17.02.35.04.52.06s.34.05.51.07c.17.03.34.05.51.08.16.03.33.06.49.09,0,0,.01,0,.02,0,.1.02.2.04.29.06.11.02.22.05.32.07.14.03.29.07.43.1.32.08.63.17.94.27.15.05.3.09.45.15.11.04.21.07.32.11.08.03.15.05.23.08.13.05.27.1.4.15.13.05.26.1.39.16.11.04.22.09.33.14.09.04.19.08.28.12.13.06.25.11.38.17.14.07.28.13.42.21.01,0,.03.01.04.02.14.07.27.14.41.21.01,0,.02,0,.03.01.11.06.21.11.32.17.06.03.12.07.19.11.12.07.24.14.36.21.12.07.25.15.37.23.03.01.05.03.07.05.12.08.24.15.36.23.01,0,.03.02.04.03.1.07.21.14.31.21.19.13.37.26.55.39.08.06.15.11.23.17.08.06.15.12.23.18.04.03.07.05.11.08.07.06.15.11.22.17.11.09.21.18.32.27,0,0,0,0,0,0,.09.08.18.15.27.23.07.06.13.11.19.17.07.06.14.12.2.19.04.03.07.07.11.1.09.09.19.17.28.27.02.02.04.04.07.06.1.09.19.19.28.28.03.03.05.05.08.08.08.08.16.17.24.25.04.04.08.08.12.13.07.08.14.16.21.24.04.04.08.08.11.13.08.09.15.18.23.27.03.03.06.07.08.1.07.08.13.16.2.24.05.07.11.13.16.2.06.07.12.15.18.23.03.03.05.06.07.09.08.1.15.2.23.3.04.05.07.1.1.14.06.07.11.15.16.23.05.06.09.12.13.19.06.08.11.16.16.24.04.05.07.11.11.17.06.09.12.19.18.29.01.02.03.04.04.06.07.11.14.22.2.33.05.08.1.16.14.24.06.1.12.21.17.31.06.11.12.22.18.33.03.05.05.1.08.15.05.1.11.21.16.31,0,.01.02.03.02.04.07.14.14.28.2.42.06.12.11.24.17.37.04.09.09.19.13.28.03.07.07.15.1.23.02.05.04.09.06.14.05.11.09.21.13.32.05.14.11.28.16.42.03.07.05.14.08.21.04.1.07.21.11.31.02.06.04.11.05.17.04.11.07.22.11.33.01.03.02.06.03.09.04.13.08.26.11.38.01.04.03.09.04.13.03.12.07.24.09.36.1.37.18.75.25,1.13.03.13.05.26.07.39.15.84.25,1.69.29,2.56,0,.14.01.29.02.43,0,.21.01.43.01.65Z"/>
        <path class="cls-1" d="m100.74,93.69c.09,15.29-12.63,27.81-27.92,27.81h-27.37c0-3.77,1.53-7.18,4-9.64,2.47-2.47,5.88-4,9.64-4h14.01c.12,0,.24,0,.36,0,11.33-.19,20.47-9.44,20.47-20.82,0-.22,0-.43-.01-.65,0-.14,0-.29-.02-.43-.04-.87-.14-1.72-.29-2.56-.02-.13-.05-.26-.07-.39-.07-.38-.16-.76-.25-1.13-.03-.12-.06-.24-.09-.36-.01-.04-.02-.09-.04-.13-.03-.13-.07-.26-.11-.38,0-.03-.02-.06-.03-.09-.03-.11-.07-.22-.11-.33-.02-.06-.03-.11-.05-.17-.03-.1-.07-.21-.11-.31-.03-.07-.05-.14-.08-.21-.05-.14-.11-.28-.16-.42-.04-.11-.08-.21-.13-.32-.02-.05-.04-.09-.06-.14-.03-.08-.06-.15-.1-.23-.04-.09-.08-.19-.13-.28-.05-.12-.11-.24-.17-.37-.07-.14-.13-.28-.2-.42,0-.01-.01-.03-.02-.04-.05-.11-.11-.21-.16-.31-.03-.05-.05-.1-.08-.15-.06-.11-.12-.22-.18-.33-.05-.1-.11-.21-.17-.31-.05-.08-.09-.16-.14-.24-.07-.11-.13-.22-.2-.33-.01-.02-.02-.04-.04-.06-.06-.1-.12-.19-.18-.29-.03-.05-.07-.11-.11-.17-.05-.08-.11-.16-.16-.24-.04-.06-.08-.12-.13-.19-.05-.08-.11-.15-.16-.23-.03-.05-.07-.09-.1-.14-.07-.1-.15-.2-.23-.3-.02-.03-.05-.06-.07-.09-.06-.07-.12-.15-.18-.23-.05-.07-.11-.13-.16-.2-.07-.08-.13-.16-.2-.24-.03-.03-.05-.06-.08-.1-.08-.09-.15-.18-.23-.27-.03-.04-.07-.08-.11-.13-.07-.08-.14-.16-.21-.24-.04-.04-.08-.08-.12-.13-.08-.09-.16-.17-.24-.25-.02-.03-.05-.05-.08-.08-.09-.1-.19-.19-.28-.28-.02-.02-.04-.04-.07-.06-.09-.09-.19-.18-.28-.27-.04-.03-.07-.07-.11-.1-.07-.06-.13-.13-.2-.19-.06-.06-.13-.12-.19-.17-.09-.08-.18-.16-.27-.23,0,0,0,0,0,0-.11-.09-.21-.18-.32-.27-.07-.06-.15-.12-.22-.17-.03-.03-.07-.06-.11-.08-.07-.06-.15-.12-.23-.18-.07-.06-.15-.11-.23-.17-.18-.13-.36-.26-.55-.39-.1-.07-.2-.14-.31-.21-.01-.01-.03-.02-.04-.03-.12-.08-.24-.16-.36-.23-.02-.02-.05-.03-.07-.05-.12-.08-.24-.15-.37-.23-.12-.07-.24-.14-.36-.21-.06-.04-.12-.07-.19-.11-.11-.06-.21-.12-.32-.17,0,0-.02,0-.03-.01-.14-.07-.27-.14-.41-.21-.01,0-.03-.01-.04-.02-.14-.07-.28-.14-.42-.21-.13-.06-.25-.12-.38-.17-.09-.04-.18-.08-.28-.12-.11-.05-.22-.09-.33-.14-.13-.05-.26-.11-.39-.16-.13-.05-.27-.1-.4-.15-.07-.03-.15-.05-.23-.08-.11-.04-.21-.07-.32-.11-.15-.05-.3-.1-.45-.15-.31-.1-.63-.19-.94-.27-.14-.04-.29-.07-.43-.1-.11-.03-.21-.05-.32-.07-.1-.02-.2-.04-.29-.06,0,0-.01,0-.02,0-.16-.03-.32-.06-.49-.09-.17-.03-.34-.06-.51-.08-.17-.03-.34-.05-.51-.07s-.34-.04-.52-.06c-.34-.03-.69-.06-1.03-.08-.03,0-.05,0-.08,0h.06c9.73.36,18.18,5.76,22.81,13.66,2.38,4.05,3.75,8.77,3.78,13.8Z"/>
        <path class="cls-10" d="m100.56,24.59c0,7.53-6.11,13.64-13.64,13.64h-14.01c-.12,0-.24,0-.36,0-11.33.19-20.47,9.44-20.47,20.82,0,.22,0,.43.01.65,0,.14,0,.29.02.43.04.87.14,1.72.29,2.56.02.13.05.26.07.39.07.38.16.76.25,1.13.03.12.06.24.09.36.01.04.02.09.04.13.03.13.07.26.11.38,0,.03.02.06.03.09.03.11.07.22.11.33.02.06.03.11.05.17.03.1.07.21.11.31.03.07.05.14.08.21.05.14.1.28.16.42.04.11.08.21.13.32.02.05.04.09.06.14.03.08.06.15.1.23.04.09.08.19.13.28.05.12.11.24.17.37.07.14.13.28.2.42,0,.01.01.03.02.04.05.11.11.21.16.31.03.05.05.1.08.15.06.11.12.22.18.33.05.1.11.21.17.31.05.08.09.16.14.24.07.11.13.22.2.33.01.02.02.04.04.06.06.1.12.19.18.29.03.05.07.11.11.17.05.08.11.16.16.24.04.06.08.12.13.19.05.08.11.15.16.23.03.05.07.09.1.14.07.1.15.2.23.3.02.03.05.06.07.09.06.07.12.15.18.23.05.07.11.13.16.2.07.08.13.16.2.24.03.03.05.06.08.1.08.09.15.18.23.27.03.04.07.08.11.13.07.08.14.16.21.24.04.04.08.08.12.13.08.09.16.17.24.25.02.03.05.05.08.08.09.1.19.19.28.28.02.02.04.04.07.06.09.09.19.18.28.27.04.03.07.07.11.1.07.06.13.13.2.19.06.06.13.12.19.17.09.08.18.16.27.23,0,0,0,0,0,0,.11.09.21.18.32.27.07.06.15.12.22.17.03.03.07.06.11.08.07.06.15.12.23.18.07.06.15.11.23.17.18.13.36.26.55.39.1.07.2.14.31.21.01.01.03.02.04.03.12.08.24.16.36.23.02.02.05.03.07.05.12.08.24.15.37.23.12.07.24.14.36.21.06.04.12.07.19.11.11.06.21.12.32.17,0,0,.02,0,.03.01.14.07.27.14.41.21.01,0,.03.01.04.02.14.07.28.14.42.21.13.06.25.12.38.17.09.04.18.08.28.12.11.05.22.09.33.14.13.05.26.11.39.16.13.05.27.1.4.15.07.03.15.05.23.08.11.04.21.07.32.11.15.05.3.1.45.15.31.1.63.19.94.27.14.04.29.07.43.1.11.03.21.05.32.07.1.02.2.04.29.06,0,0,.01,0,.02,0,.16.03.32.06.49.09.17.03.34.06.51.08.17.03.34.05.51.07.17.02.34.04.52.06.34.03.69.06,1.03.08.03,0,.05,0,.08,0h-.06c-9.73-.36-18.18-5.76-22.81-13.66-2.4-4.1-3.78-8.87-3.78-13.96,0-15.27,12.38-27.65,27.65-27.65h27.65Z"/>
      </g>
    </g>
  </g>
</svg>