<svg xmlns="http://www.w3.org/2000/svg" version="1.1" x="0px" y="0px" viewBox="0 0 100 125" enable-background="new 0 0 100 100" xml:space="preserve"><g><path d="M40.786,38.212c-1.123,2.848-1.844,5.906-2.109,9.07h10.972v-7.639C46.596,39.554,43.617,39.063,40.786,38.212z"/><path d="M49.648,73.849V62.356c-2.776,0.086-5.485,0.525-8.063,1.281C43.495,67.685,46.243,71.208,49.648,73.849z"/><path d="M41.584,36.362c2.579,0.756,5.287,1.195,8.063,1.281V26.151C46.243,28.792,43.495,32.313,41.584,36.362z"/><path d="M47.991,24.919c-5.906,0.621-11.211,3.287-15.191,7.277c2.098,1.451,4.409,2.645,6.875,3.543   C41.642,31.487,44.474,27.761,47.991,24.919z"/><path d="M38.89,37.577c-2.678-0.982-5.186-2.293-7.455-3.893c-3.191,3.752-5.307,8.443-5.861,13.598H36.67   C36.938,43.901,37.698,40.628,38.89,37.577z"/><path d="M39.676,64.265c-2.465,0.898-4.776,2.09-6.873,3.543c3.979,3.986,9.283,6.652,15.187,7.273   C44.475,72.237,41.643,68.515,39.676,64.265z"/><path d="M51.648,73.849c3.404-2.641,6.152-6.164,8.063-10.211c-2.579-0.756-5.287-1.195-8.063-1.281V73.849z"/><path d="M53.307,75.081c5.904-0.623,11.209-3.289,15.188-7.277c-2.098-1.453-4.408-2.646-6.874-3.543   C59.654,68.513,56.822,72.237,53.307,75.081z"/><path d="M60.51,38.214c-2.829,0.854-5.811,1.34-8.861,1.43v7.639h10.971C62.354,44.12,61.633,41.062,60.51,38.214z"/><path d="M51.648,26.151v11.492c2.775-0.086,5.483-0.525,8.063-1.281C57.801,32.313,55.053,28.792,51.648,26.151z"/><path d="M61.621,35.739c2.466-0.898,4.776-2.092,6.875-3.543c-3.98-3.99-9.285-6.656-15.19-7.277   C56.821,27.761,59.653,31.487,61.621,35.739z"/><path d="M38.221,60.278c-3.635,0.439-7.041,0.732-10.1,0.869c0.919,1.855,2.05,3.588,3.377,5.15c2.27-1.602,4.784-2.91,7.463-3.895   C38.689,61.708,38.448,60.995,38.221,60.278z"/><path d="M38.613,49.999c0,2.287,0.252,4.537,0.716,6.713c3.318-0.432,6.811-0.982,10.382-1.637v-5.793H38.633   C38.628,49.522,38.613,49.759,38.613,49.999z"/><path d="M40.842,61.771c2.832-0.854,5.816-1.346,8.869-1.434v-1.805c-3.253,0.586-6.439,1.086-9.492,1.49   C40.413,60.612,40.616,61.196,40.842,61.771z"/><path d="M62.197,55.896c-2.658,0.639-5.404,1.246-8.208,1.809c-0.782,0.158-1.563,0.309-2.341,0.457v2.195   c3.051,0.09,6.03,0.578,8.861,1.432C61.252,59.907,61.818,57.931,62.197,55.896z"/><path d="M62.654,52.296c0.055-0.762,0.092-1.525,0.092-2.297c0-0.24-0.016-0.477-0.021-0.717H51.648v5.416   c0.557-0.107,1.112-0.215,1.671-0.326C56.682,53.696,59.787,52.999,62.654,52.296z"/><path d="M73.426,49.282h-8.703c0.005,0.24,0.021,0.477,0.021,0.717c0,0.598-0.02,1.191-0.051,1.783   C67.945,50.946,70.85,50.106,73.426,49.282z"/><path d="M62.403,62.421c2.678,0.984,5.186,2.293,7.454,3.895c3.322-3.906,5.473-8.834,5.916-14.24   c-3.477,1.15-7.344,2.264-11.465,3.301C63.92,57.813,63.279,60.179,62.403,62.421z"/><path d="M86.658,44.288c-0.243-1.311-1.587-2.814-9.887-2.814c-0.756,0-1.556,0.018-2.381,0.043   c-1.035-2.887-2.578-5.535-4.529-7.83c-2.269,1.6-4.782,2.902-7.458,3.887c1.193,3.053,1.954,6.326,2.222,9.709h11.097   c-0.14-1.293-0.377-2.557-0.704-3.783c0.602-0.014,1.191-0.025,1.754-0.025c7.123,0,7.9,1.158,7.918,1.158c0.001,0,0.001,0,0.001,0   c-0.046,0.406-0.722,1.002-2.005,1.727c-0.666-0.803-1.658-1.324-2.781-1.324c-2.001,0-3.629,1.627-3.629,3.629   c0,0.156,0.027,0.307,0.047,0.459c-5.666,2.045-14.178,4.41-25.476,6.51c-9.213,1.711-18.041,2.785-24.779,3.033   c-0.265-2.186-2.105-3.885-4.362-3.885c-2.136,0-3.917,1.516-4.327,3.529c-1.752-0.332-2.048-0.746-2.06-0.748   c0.108-0.943,3.585-2.906,10.315-5.164c0.185,1.865,0.566,3.672,1.13,5.398c3.147-0.096,6.728-0.381,10.589-0.838   c-0.47-2.258-0.726-4.59-0.726-6.959c0-0.24,0.017-0.477,0.021-0.717H25.521c-0.007,0.238-0.018,0.477-0.018,0.717   c0,0.113,0.012,0.225,0.014,0.336c-0.614,0.201-1.218,0.4-1.792,0.602C13.904,54.38,13.1,56.563,13.35,57.905   c0.169,0.914,0.883,1.922,4.112,2.447c0.511,1.875,2.208,3.26,4.243,3.26c1.918,0,3.535-1.23,4.144-2.939   c6.876-0.232,15.928-1.322,25.363-3.074c7.249-1.346,18.096-3.826,25.889-6.66c0.666,0.818,1.669,1.354,2.804,1.354   c2.002,0,3.629-1.629,3.629-3.629c0-0.195-0.027-0.383-0.057-0.568C85.646,46.825,86.891,45.538,86.658,44.288z M79.904,51.292   c-1.449,0-2.629-1.18-2.629-2.629s1.18-2.629,2.629-2.629s2.629,1.18,2.629,2.629S81.354,51.292,79.904,51.292z"/></g></svg>